<svg width="25" height="25" viewBox="0 0 25 25" fill="none" xmlns="http://www.w3.org/2000/svg">
<g clip-path="url(#clip0)">
<path d="M16.348 11.3765L10.8249 8.35453C10.5074 8.18077 10.132 8.18725 9.82073 8.37169C9.50926 8.55632 9.32349 8.88248 9.32349 9.2445V15.2366C9.32349 15.5969 9.50812 15.9225 9.81749 16.1073C9.97904 16.2038 10.1581 16.2523 10.3376 16.2523C10.502 16.2523 10.6668 16.2117 10.8185 16.13L16.3418 13.1601C16.6696 12.9837 16.8743 12.6428 16.8758 12.2703C16.8771 11.8978 16.675 11.5554 16.348 11.3765ZM10.7885 14.4828V10.0044L14.9164 12.2631L10.7885 14.4828Z" fill="white"/>
<path d="M24.8161 7.49645L24.815 7.48501C24.7938 7.28378 24.5831 5.49393 23.7129 4.58355C22.7072 3.51276 21.567 3.38268 21.0186 3.32031C20.9732 3.31516 20.9316 3.31039 20.8944 3.30544L20.8508 3.30086C17.5457 3.06053 12.5544 3.02773 12.5044 3.02753L12.5 3.02734L12.4956 3.02753C12.4456 3.02773 7.4543 3.06053 4.11949 3.30086L4.07543 3.30544C4.03996 3.3102 4.00085 3.31459 3.95832 3.31955C3.41625 3.38211 2.28825 3.51238 1.27964 4.62189C0.450897 5.52254 0.211334 7.27406 0.186729 7.47089L0.183868 7.49645C0.17643 7.58018 0 9.57355 0 11.5747V13.4455C0 15.4467 0.17643 17.44 0.183868 17.524L0.185204 17.5365C0.206375 17.7345 0.416946 19.4916 1.28307 20.4023C2.22874 21.4373 3.42445 21.5742 4.06761 21.6478C4.16927 21.6595 4.25682 21.6694 4.31652 21.6799L4.37431 21.6879C6.28262 21.8695 12.2658 21.9589 12.5195 21.9625L12.5271 21.9627L12.5347 21.9625C12.5847 21.9624 17.5758 21.9296 20.8809 21.6892L20.9246 21.6846C20.9663 21.6791 21.0133 21.6742 21.0648 21.6688C21.6038 21.6116 22.7257 21.4928 23.7204 20.3983C24.5491 19.4975 24.7889 17.746 24.8133 17.5493L24.8161 17.5238C24.8236 17.4398 25.0002 15.4467 25.0002 13.4455V11.5747C25 9.57355 24.8236 7.58038 24.8161 7.49645ZM23.535 13.4455C23.535 15.2977 23.3732 17.2052 23.358 17.3803C23.2958 17.8627 23.0431 18.9709 22.6393 19.4098C22.0167 20.0947 21.3772 20.1626 20.9103 20.212C20.8538 20.2179 20.8015 20.2236 20.7542 20.2295C17.5575 20.4607 12.7546 20.4962 12.5334 20.4975C12.2852 20.4939 6.38962 20.4037 4.53949 20.2318C4.44469 20.2164 4.34227 20.2045 4.23431 20.1923C3.68671 20.1296 2.93713 20.0438 2.36073 19.4098L2.34718 19.3953C1.95045 18.9819 1.70498 17.9457 1.64261 17.3861C1.63097 17.2537 1.46503 15.3236 1.46503 13.4455V11.5747C1.46503 9.72462 1.6264 7.81918 1.64204 7.64046C1.71623 7.07226 1.97372 6.03123 2.36073 5.61047C3.00236 4.90475 3.67889 4.82655 4.12636 4.77486C4.16908 4.7699 4.20895 4.76532 4.24576 4.76055C7.48901 4.52824 12.3264 4.49371 12.5 4.49238C12.6736 4.49352 17.5093 4.52824 20.7237 4.76055C20.7632 4.76551 20.8063 4.77047 20.8527 4.77581C21.3129 4.82826 22.0085 4.90761 22.6469 5.58853L22.6528 5.59483C23.0495 6.00815 23.295 7.06253 23.3574 7.6334C23.3685 7.75833 23.535 9.69257 23.535 11.5747V13.4455Z" fill="white"/>
</g>
<defs>
<clipPath id="clip0">
<rect width="25.0001" height="25" fill="white"/>
</clipPath>
</defs>
</svg>
