<svg aria-hidden="true" style="position: absolute; width: 0; height: 0; overflow: hidden;" version="1.1" xmlns="http://www.w3.org/2000/svg" xmlns:xlink="http://www.w3.org/1999/xlink">
<defs>
<symbol id="youtube" viewBox="0 0 32 32">
<path fill="#fff" style="fill: var(--color1, #fff)" d="M20.925 14.562l-7.070-3.868c-0.406-0.222-0.887-0.214-1.285 0.022s-0.636 0.654-0.636 1.117v7.67c0 0.461 0.236 0.878 0.632 1.114 0.207 0.124 0.436 0.186 0.666 0.186 0.21 0 0.421-0.052 0.616-0.157l7.070-3.801c0.42-0.226 0.682-0.662 0.684-1.139s-0.257-0.915-0.676-1.144zM13.809 18.538v-5.732l5.284 2.891-5.284 2.841z"></path>
<path fill="#fff" style="fill: var(--color1, #fff)" d="M31.765 9.595l-0.001-0.015c-0.027-0.258-0.297-2.549-1.411-3.714-1.287-1.371-2.747-1.537-3.449-1.617-0.058-0.007-0.111-0.013-0.159-0.019l-0.056-0.006c-4.231-0.308-10.619-0.35-10.683-0.35l-0.006-0-0.006 0c-0.064 0-6.453 0.042-10.721 0.35l-0.056 0.006c-0.045 0.006-0.095 0.012-0.15 0.018-0.694 0.080-2.138 0.247-3.429 1.667-1.061 1.153-1.367 3.395-1.399 3.647l-0.004 0.033c-0.010 0.107-0.235 2.659-0.235 5.22v2.395c0 2.562 0.226 5.113 0.235 5.22l0.002 0.016c0.027 0.253 0.297 2.503 1.405 3.668 1.21 1.325 2.741 1.5 3.564 1.594 0.13 0.015 0.242 0.028 0.319 0.041l0.074 0.010c2.443 0.232 10.101 0.347 10.426 0.352l0.010 0 0.010-0c0.064-0 6.453-0.042 10.683-0.35l0.056-0.006c0.053-0.007 0.114-0.013 0.179-0.020 0.69-0.073 2.126-0.225 3.399-1.626 1.061-1.153 1.368-3.395 1.399-3.647l0.004-0.033c0.010-0.108 0.236-2.659 0.236-5.22v-2.395c-0-2.561-0.226-5.113-0.236-5.22zM30.125 17.21c0 2.371-0.207 4.812-0.227 5.037-0.080 0.617-0.403 2.036-0.92 2.598-0.797 0.877-1.616 0.964-2.213 1.027-0.072 0.008-0.139 0.015-0.2 0.022-4.092 0.296-10.239 0.341-10.523 0.343-0.318-0.005-7.864-0.12-10.232-0.34-0.121-0.020-0.252-0.035-0.391-0.051-0.701-0.080-1.66-0.19-2.398-1.002l-0.017-0.019c-0.508-0.529-0.822-1.855-0.902-2.572-0.015-0.169-0.227-2.64-0.227-5.044v-2.395c0-2.368 0.207-4.807 0.227-5.036 0.095-0.727 0.425-2.060 0.92-2.598 0.821-0.903 1.687-1.003 2.26-1.070 0.055-0.006 0.106-0.012 0.153-0.018 4.151-0.297 10.343-0.342 10.565-0.343 0.222 0.001 6.412 0.046 10.526 0.343 0.051 0.006 0.106 0.013 0.165 0.020 0.589 0.067 1.479 0.169 2.297 1.040l0.008 0.008c0.508 0.529 0.822 1.879 0.902 2.609 0.014 0.16 0.227 2.636 0.227 5.045v2.395z"></path>
</symbol>
<symbol id="phone" viewBox="0 0 32 32">
<path fill="#fff" style="fill: var(--color1, #fff)" d="M22.999 32c-1.033 0-2.057-0.183-3.059-0.546-4.412-1.603-8.508-4.213-11.844-7.549s-5.947-7.432-7.549-11.844c-0.515-1.418-0.667-2.882-0.452-4.351 0.202-1.376 0.735-2.712 1.541-3.863 0.81-1.156 1.89-2.118 3.123-2.781 1.315-0.707 2.75-1.066 4.266-1.066 0.472 0 0.879 0.329 0.978 0.79l1.57 7.325c0.071 0.332-0.031 0.677-0.271 0.917l-2.682 2.682c2.53 5.030 6.635 9.135 11.666 11.666l2.682-2.682c0.24-0.24 0.585-0.341 0.917-0.271l7.325 1.57c0.461 0.099 0.79 0.506 0.79 0.978 0 1.516-0.359 2.951-1.066 4.267-0.663 1.233-1.625 2.313-2.781 3.123-1.151 0.807-2.487 1.34-3.863 1.541-0.431 0.063-0.862 0.095-1.292 0.095zM8.228 2.044c-2 0.221-3.774 1.269-4.953 2.951-1.325 1.891-1.634 4.218-0.848 6.383 3.081 8.482 9.714 15.115 18.196 18.196 2.165 0.787 4.492 0.478 6.383-0.848 1.682-1.179 2.73-2.953 2.951-4.953l-5.959-1.277-2.801 2.801c-0.298 0.298-0.751 0.377-1.132 0.198-5.949-2.795-10.765-7.61-13.559-13.56-0.179-0.381-0.1-0.834 0.198-1.132l2.801-2.801-1.277-5.959z"></path>
</symbol>
<symbol id="instagram" viewBox="0 0 32 32">
<path fill="#fff" style="fill: var(--color1, #fff)" d="M23.338 0h-14.676c-4.776 0-8.662 3.886-8.662 8.662v14.676c0 4.776 3.886 8.662 8.662 8.662h14.676c4.776 0 8.662-3.886 8.662-8.662v-14.676c0-4.776-3.886-8.662-8.662-8.662v0zM30.124 23.338c0 3.742-3.044 6.786-6.786 6.786h-14.676c-3.742 0-6.786-3.044-6.786-6.786v-14.676c0-3.742 3.044-6.786 6.786-6.786h14.676c3.742 0 6.786 3.044 6.786 6.786v14.676z"></path>
<path fill="#fff" style="fill: var(--color1, #fff)" d="M16 7.25c-4.825 0-8.75 3.925-8.75 8.75s3.925 8.75 8.75 8.75c4.825 0 8.75-3.925 8.75-8.75s-3.925-8.75-8.75-8.75zM16 22.873c-3.79 0-6.874-3.084-6.874-6.874s3.084-6.874 6.874-6.874c3.79 0 6.874 3.084 6.874 6.874s-3.084 6.874-6.874 6.874z"></path>
<path fill="#fff" style="fill: var(--color1, #fff)" d="M24.959 4.143c-1.426 0-2.585 1.16-2.585 2.585s1.16 2.586 2.585 2.586 2.586-1.16 2.586-2.586c0-1.426-1.16-2.585-2.586-2.585zM24.959 7.438c-0.391 0-0.709-0.318-0.709-0.709s0.318-0.709 0.709-0.709c0.391 0 0.71 0.318 0.71 0.709s-0.318 0.709-0.71 0.709z"></path>
</symbol>
<symbol id="facebook" viewBox="0 0 32 32">
<path fill="#fff" style="fill: var(--color1, #fff)" d="M29.333 0h-26.667c-1.493 0-2.667 1.173-2.667 2.667v26.667c0 1.493 1.173 2.667 2.667 2.667h26.667c1.493 0 2.667-1.173 2.667-2.667v-26.667c0-1.493-1.173-2.667-2.667-2.667zM16 30.933v-10.667h-4.267v-4.267h4.267v-3.733c0-3.040 2.347-5.6 5.333-5.867h4.8v4.267h-4.267c-0.907 0-1.6 0.693-1.6 1.6v3.733h5.333v4.267h-5.333v10.667h-4.267zM30.933 29.333c0 0.907-0.693 1.6-1.6 1.6h-8v-9.6h5.333v-6.4h-5.333v-2.667c0-0.32 0.213-0.533 0.533-0.533h5.333v-6.4h-5.92c-3.573 0.32-6.347 3.36-6.347 6.933v2.667h-4.267v6.4h4.267v9.6h-12.267c-0.907 0-1.6-0.693-1.6-1.6v-26.667c0-0.907 0.693-1.6 1.6-1.6h26.667c0.907 0 1.6 0.693 1.6 1.6v26.667z"></path>
</symbol>
<symbol id="mail" viewBox="0 0 31 32">
<path fill="#fff" style="fill: var(--color1, #fff)" d="M27.885 4h-25c-1.591 0-2.885 1.346-2.885 3v18c0 1.654 1.294 3 2.885 3h25c1.591 0 2.885-1.346 2.885-3v-18c0-1.654-1.294-3-2.885-3zM27.885 6c0.131 0 0.255 0.028 0.369 0.077l-12.869 11.599-12.869-11.599c0.114-0.049 0.238-0.077 0.369-0.077h25zM27.885 26h-25c-0.531 0-0.962-0.448-0.962-1v-16.81l12.832 11.565c0.181 0.163 0.406 0.244 0.63 0.244s0.449-0.081 0.63-0.244l12.831-11.565v16.81c0 0.552-0.431 1-0.962 1z"></path>
</symbol>
<symbol id="search" viewBox="0 0 32 32">
<path d="M31.805 30.862l-9.737-9.737c2.022-2.245 3.265-5.206 3.265-8.459 0-6.984-5.682-12.667-12.667-12.667s-12.667 5.682-12.667 12.667c0 6.984 5.682 12.667 12.667 12.667 3.253 0 6.213-1.243 8.459-3.265l9.737 9.737c0.13 0.13 0.301 0.195 0.471 0.195s0.341-0.065 0.471-0.195c0.26-0.26 0.26-0.682-0-0.943zM12.667 24c-6.249 0-11.333-5.084-11.333-11.333s5.085-11.333 11.333-11.333c6.249 0 11.333 5.084 11.333 11.333s-5.085 11.333-11.333 11.333z"></path>
</symbol>
<symbol id="dots" viewBox="0 0 76 32">
<path fill="#abd6cf" style="fill: var(--color2, #abd6cf)" d="M13.3 25.333c0 3.682-2.977 6.667-6.65 6.667s-6.65-2.985-6.65-6.667c0-3.682 2.977-6.667 6.65-6.667s6.65 2.985 6.65 6.667z"></path>
<path fill="#abd6cf" style="fill: var(--color2, #abd6cf)" d="M34.58 9.333c0 3.682-2.977 6.667-6.65 6.667s-6.65-2.985-6.65-6.667c0-3.682 2.977-6.667 6.65-6.667s6.65 2.985 6.65 6.667z"></path>
<path fill="#abd6cf" style="fill: var(--color2, #abd6cf)" d="M54.53 24c0 3.682-2.977 6.667-6.65 6.667s-6.65-2.985-6.65-6.667c0-3.682 2.977-6.667 6.65-6.667s6.65 2.985 6.65 6.667z"></path>
<path fill="#abd6cf" style="fill: var(--color2, #abd6cf)" d="M75.81 6.667c0 3.682-2.977 6.667-6.65 6.667s-6.65-2.985-6.65-6.667c0-3.682 2.977-6.667 6.65-6.667s6.65 2.985 6.65 6.667z"></path>
</symbol>
<symbol id="triangle" viewBox="0 0 40 32">
<path d="M23.464 30c-1.54 2.667-5.389 2.667-6.928 0l-13.856-24c-1.54-2.667 0.385-6 3.464-6h27.713c3.079 0 5.004 3.333 3.464 6l-13.856 24z"></path>
</symbol>
</defs>
</svg>
